<?xml version="1.0" encoding="UTF-8" standalone="no"?>
<!-- Created with Inkscape (http://www.inkscape.org/) -->

<svg
   width="233.14685mm"
   height="312.92361mm"
   viewBox="0 0 233.14685 312.92361"
   version="1.1"
   id="svg1"
   xmlns="http://www.w3.org/2000/svg"
   xmlns:svg="http://www.w3.org/2000/svg">
  <defs
     id="defs1" />
  <g
     id="layer1"
     transform="translate(0.36408544,9.111182)">
    <path
       style="fill:none;stroke:#000000;stroke-width:1.365;stroke-linejoin:round"
       d="m 228.74624,-8.8884714 c 5.18911,15.0316433 4.32048,32.0602684 -2.37124,46.4858714 -6.69172,14.425603 -19.13158,26.08659 -33.95914,31.832938 -10.29421,3.98947 -21.43234,5.167132 -32.42978,6.138167 -10.99744,0.971034 -22.12501,1.793518 -32.64659,5.137623 -6.74597,2.144091 -13.19893,5.334372 -18.73183,9.749369 -5.53291,4.414996 -10.126733,10.081993 -12.903735,16.593023 -2.777002,6.51102 -3.681414,13.87524 -2.140729,20.78404 1.540686,6.90879 5.596345,13.30212 11.436804,17.3014 5.18819,3.55263 11.52171,5.11864 17.7947,5.55234 6.27299,0.4337 12.56357,-0.19654 18.83295,-0.67962 6.26938,-0.48308 12.61081,-0.81657 18.8158,0.20154 6.20499,1.01812 12.33049,3.49467 16.76683,7.95083 5.15801,5.18105 7.61204,12.81205 6.85121,20.0832 -0.76082,7.27115 -4.61039,14.09265 -10.17481,18.83455 -5.56442,4.74191 -12.75151,7.4376 -20.0436,7.96079 -7.2921,0.5232 -14.66868,-1.06911 -21.29601,-4.15568 -8.27703,-3.8549 -15.32586,-9.92873 -21.69505,-16.47112 -6.36919,-6.5424 -12.173102,-13.62426 -18.675723,-20.03405 C 85.673676,157.96695 78.350241,152.16974 69.8509,148.83347 61.35156,145.4972 51.526891,144.82982 43.166315,148.5 c -5.515017,2.42102 -10.176047,6.63743 -13.402924,11.72309 -3.226876,5.08567 -5.044789,11.0118 -5.540702,17.01437 -0.991827,12.00514 3.237679,23.97265 9.60819,34.19633 4.516179,7.24776 10.086044,13.7734 15.052176,20.7206 4.966133,6.94719 9.399295,14.49197 11.197824,22.8401 1.636919,7.59799 0.981189,15.6745 -1.85997,22.90891 -2.84116,7.23442 -7.85673,13.59869 -14.226608,18.05219 -6.369877,4.45349 -14.069359,6.97894 -21.83949,7.1634 C 14.38468,303.30345 6.5740321,301.14621 0,297"
       id="path1" />
  </g>
</svg>
