<?xml version="1.0" encoding="UTF-8" standalone="no"?>
<!-- Created with Inkscape (http://www.inkscape.org/) -->

<svg
   width="247.56256mm"
   height="318.18781mm"
   viewBox="0 0 247.56256 318.18781"
   version="1.1"
   id="svg1"
   xmlns="http://www.w3.org/2000/svg"
   xmlns:svg="http://www.w3.org/2000/svg">
  <defs
     id="defs1" />
  <g
     id="layer1"
     transform="translate(36.880055,-18.187398)">
    <path
       style="fill:none;stroke:#000000;stroke-width:1.365;stroke-linejoin:round"
       d="m 210,18.187397 v 5.345853 c 0,12.67493 -0.48076,25.706387 -5.58497,37.308147 -5.10422,11.601759 -14.78471,21.167248 -26.58893,25.78397 -11.80423,4.616723 -25.09865,4.309667 -37.38236,1.184869 C 128.16003,84.685437 116.71812,78.985553 105,74.154455 89.155798,67.622273 72.518519,62.691057 55.44088,61.254957 38.363241,59.818857 20.78759,61.992782 5.2020735,69.120181 -10.383443,76.24758 -23.846844,88.55189 -30.888307,104.17642 c -3.520731,7.81227 -5.415606,16.37735 -5.304636,24.94559 0.11097,8.56823 2.246005,17.12843 6.359635,24.64542 5.866223,10.71956 15.611799,19.04468 26.6356145,24.31698 11.0238158,5.2723 23.2823715,7.62488 35.4929375,8.0979 24.42113,0.94603 48.460104,-5.39514 72.704756,-8.47466 19.33287,-2.45563 39.81368,-2.65595 57.32022,5.90623 8.75327,4.2811 16.54412,10.76589 21.63494,19.07438 5.09083,8.30849 7.3361,18.48697 5.3984,28.03646 -1.863,9.18136 -7.37574,17.25606 -13.8647,24.0134 -6.48896,6.75733 -14.00976,12.42465 -20.99421,18.6685 -6.98444,6.24385 -13.56027,13.24727 -17.45504,21.76777 -1.94739,4.26025 -3.19232,8.86903 -3.37577,13.54967 -0.18344,4.68064 0.71745,9.43365 2.8497,13.60445 1.98361,3.88006 5.02226,7.21425 8.70208,9.54845 3.67982,2.3342 7.99105,3.66221 12.34647,3.80315 4.35542,0.14095 8.74349,-0.90556 12.56652,-2.99696 3.82304,-2.09141 7.0709,-5.22217 9.30121,-8.96587"
       id="path1" />
  </g>
</svg>
